<?xml version="1.0" standalone="no"?><!DOCTYPE svg PUBLIC "-//W3C//DTD SVG 1.1//EN" "http://www.w3.org/Graphics/SVG/1.1/DTD/svg11.dtd"><svg t="1539396266202" class="icon" style="" viewBox="0 0 1024 1024" version="1.1" xmlns="http://www.w3.org/2000/svg" p-id="1955" xmlns:xlink="http://www.w3.org/1999/xlink" width="32" height="32"><defs><style type="text/css"></style></defs><path d="M1004 298.4H20c-4.8 0-8-3.2-8-8V107.2c0-4.8 3.2-8 8-8h984c4.8 0 8 3.2 8 8v183.2c0 4-3.2 8-8 8z m-976-16h968V115.2H28v167.2z" p-id="1956" fill="#FFFFFF"></path><path d="M1004 1020H20c-8.8 0-16-7.2-16-16V107.2c0-8.8 7.2-16 16-16h984c8.8 0 16 7.2 16 16v896.8c0 8.8-7.2 16-16 16z m-968-32h952V123.2H36v864.8z" p-id="1957" fill="#FFFFFF"></path><path d="M158.4 210.4c-8.8 0-16-7.2-16-16V20c0-8.8 7.2-16 16-16s16 7.2 16 16v174.4c0 8.8-7.2 16-16 16zM291.2 210.4c-8.8 0-16-7.2-16-16V20c0-8.8 7.2-16 16-16s16 7.2 16 16v174.4c0 8.8-7.2 16-16 16zM732.8 210.4c-8.8 0-16-7.2-16-16V20c0-8.8 7.2-16 16-16s16 7.2 16 16v174.4c0 8.8-7.2 16-16 16zM865.6 210.4c-8.8 0-16-7.2-16-16V20c0-8.8 7.2-16 16-16s16 7.2 16 16v174.4c0 8.8-7.2 16-16 16zM586.4 862.4c-1.6 0-4-0.8-5.6-2.4 0 0-33.6-32-74.4-75.2-3.2-3.2-3.2-8 0-11.2 3.2-3.2 8-3.2 11.2 0 30.4 32.8 57.6 58.4 68 68.8C620 809.6 800 632 800 560.8c0-63.2-51.2-114.4-114.4-114.4-25.6 0-49.6 8-69.6 23.2-3.2 2.4-8.8 2.4-11.2-1.6-2.4-3.2-2.4-8.8 1.6-11.2 23.2-17.6 50.4-26.4 79.2-26.4 72 0 130.4 58.4 130.4 130.4 0 84.8-216 289.6-224.8 298.4-0.8 2.4-3.2 3.2-4.8 3.2z" p-id="1958" fill="#FFFFFF"></path><path d="M437.6 862.4c-1.6 0-4-0.8-5.6-2.4-8.8-8.8-224.8-212.8-224.8-298.4 0-72 58.4-130.4 130.4-130.4 38.4 0 75.2 17.6 100 47.2 24.8-29.6 61.6-47.2 100-47.2 72 0 130.4 58.4 130.4 130.4 0 84.8-216 289.6-224.8 298.4-1.6 1.6-3.2 2.4-5.6 2.4zM337.6 448c-63.2 0-114.4 51.2-114.4 114.4 0 72 180 248.8 214.4 281.6 34.4-32.8 214.4-210.4 214.4-281.6 0-63.2-51.2-114.4-114.4-114.4-36.8 0-72 18.4-93.6 48.8-3.2 4-10.4 4-12.8 0-21.6-31.2-56-48.8-93.6-48.8z" p-id="1959" fill="#FFFFFF"></path></svg>